<?xml version="1.0" encoding="utf-8"?>
<!-- Svg Vector Icons : http://www.onlinewebfonts.com/icon -->
<!DOCTYPE svg PUBLIC "-//W3C//DTD SVG 1.1//EN" "http://www.w3.org/Graphics/SVG/1.1/DTD/svg11.dtd">
<svg version="1.1" xmlns="http://www.w3.org/2000/svg" xmlns:xlink="http://www.w3.org/1999/xlink" x="0px" y="0px" viewBox="0 0 1000 1000" enable-background="new 0 0 1000 1000" xml:space="preserve">
<metadata> Svg Vector Icons : http://www.onlinewebfonts.com/icon </metadata>
<g><path d="M255.4,326c-1.6,1.5-2.3,4-1.4,6.2c0.9,2.3,2.9,3.6,5.1,3.6h151.8L410.5,594c0,4.4,1.6,8.7,4.8,12.1c3.2,3.3,7.3,5,11.5,5h148.6c4.2,0,8.4-1.7,11.5-5c3.2-3.3,4.8-7.7,4.8-12.1l-0.3-258.2h151.8c2.2,0,4.3-1.3,5.1-3.6c0.9-2.3,0.3-4.7-1.4-6.2L512.3,99.7c-2.9-2.8-6.8-4.5-11.2-4.5c-4.3,0-8.1,1.7-11.1,4.5L255.4,326L255.4,326L255.4,326z"/><path d="M979.6,667.8L832.4,549.6c-8.3-6.7-23.8-12.3-34.4-12.3h-85.2l141.8,146.9H713.3l-72,106.3H358l-68.9-106.4H147.7l140.9-146.9h-86.8c-10.6,0-26,5.5-34.4,12.3L20.3,667.8c-8.3,6.8-12.4,20.8-9.2,31.3l58.7,186.8c3.3,10.4,14.7,19,25.2,19h811.1c10.6,0,21.9-8.6,25.1-19l57.7-186.7C992.1,688.7,987.9,674.6,979.6,667.8L979.6,667.8z"/></g>
</svg>